<?xml version="1.0" encoding="UTF-8"?>
<svg width="13px" height="16px" viewBox="0 0 13 16" version="1.1" xmlns="http://www.w3.org/2000/svg" xmlns:xlink="http://www.w3.org/1999/xlink">
    <!-- Generator: Sketch 59.1 (86144) - https://sketch.com -->
    <title>document</title>
    <desc>Created with Sketch.</desc>
    <g id="Facilitator" stroke="none" stroke-width="1" fill="none" fill-rule="evenodd">
        <g id="Facilitator-View-Main" transform="translate(-479.000000, -658.000000)" fill="#7A7A7A" fill-rule="nonzero">
            <g id="document" transform="translate(479.000000, 658.000000)">
                <path d="M0,1.94923885 L0,15.7348625 C0,15.8812996 0.122540549,16 0.273715212,16 L10.673766,16 C10.8248279,16 10.9473684,15.8812996 10.9473684,15.7348625 L10.9473684,4.60039592 C10.9473684,4.59449911 10.9444374,4.58947593 10.9438737,4.58368834 C10.9425209,4.56042872 10.9377861,4.53749674 10.9298949,4.51554755 C10.9268511,4.50702994 10.9247091,4.49883996 10.9208762,4.49054073 C10.9075738,4.46171194 10.8890856,4.43539475 10.8660881,4.41289957 L8.12927417,1.76185172 C8.1060512,1.7394657 8.07876988,1.7215569 8.04878294,1.70878051 C8.04055346,1.70539531 8.03221125,1.70255612 8.02364353,1.70004452 C8.00075879,1.6924005 7.97697217,1.68781412 7.95273461,1.6862853 C7.94811257,1.68704971 7.9427014,1.68421053 7.93695202,1.68421053 L0.273715212,1.68421053 C0.122540549,1.68421053 0,1.80280169 0,1.94923885 Z M10.0130391,4.33525838 L8.2105545,4.33525838 L8.2105545,2.58925994 L10.0130391,4.33525838 Z M0.547317699,2.21437643 L7.66323681,2.21437643 L7.66323681,4.60039592 C7.66323681,4.74672389 7.78577735,4.86542428 7.93683929,4.86542428 L10.4000507,4.86542428 L10.4000507,15.4698341 L0.547317699,15.4698341 L0.547317699,2.21437643 Z" id="Shape"></path>
                <path d="M11.5368421,13.7856236 L11.5368421,14.3157895 L12.3578666,14.3157895 C12.5090397,14.3157895 12.6315789,14.1971983 12.6315789,14.0507611 L12.6315789,0.265137546 C12.6315789,0.118700383 12.5090397,0 12.3578666,0 L1.95792295,0 C1.80674981,0 1.68421053,0.118700383 1.68421053,0.265137546 L1.68421053,1.06044099 L2.23163531,1.06044099 L2.23163531,0.530165899 L12.0841542,0.530165899 L12.0841542,13.7856236 L11.5368421,13.7856236 Z" id="Path"></path>
                <polygon id="Path" points="2.52631579 5.05263158 9.26315789 5.05263158 9.26315789 5.89473684 2.52631579 5.89473684"></polygon>
                <polygon id="Path" points="2.52631579 3.36842105 5.05263158 3.36842105 5.05263158 4.21052632 2.52631579 4.21052632"></polygon>
                <polygon id="Path" points="2.52631579 6.73684211 6.73684211 6.73684211 6.73684211 7.57894737 2.52631579 7.57894737"></polygon>
                <polygon id="Path" points="6.73684211 6.73684211 8.42105263 6.73684211 8.42105263 7.57894737 6.73684211 7.57894737"></polygon>
                <polygon id="Path" points="2.52631579 8.42105263 9.26315789 8.42105263 9.26315789 9.26315789 2.52631579 9.26315789"></polygon>
                <polygon id="Path" points="2.52631579 11.7894737 9.26315789 11.7894737 9.26315789 12.6315789 2.52631579 12.6315789"></polygon>
                <polygon id="Path" points="5.05263158 10.1052632 9.26315789 10.1052632 9.26315789 10.9473684 5.05263158 10.9473684"></polygon>
                <polygon id="Path" points="2.52631579 10.1052632 4.21052632 10.1052632 4.21052632 10.9473684 2.52631579 10.9473684"></polygon>
                <polygon id="Path" points="1.68421053 13.4736842 3.36842105 13.4736842 3.36842105 14.3157895 1.68421053 14.3157895"></polygon>
                <polygon id="Path" points="4.21052632 13.4736842 9.26315789 13.4736842 9.26315789 14.3157895 4.21052632 14.3157895"></polygon>
            </g>
        </g>
    </g>
</svg>