<?xml version="1.0" encoding="UTF-8"?>
<svg width="25px" height="25px" viewBox="0 0 25 25" version="1.1" xmlns="http://www.w3.org/2000/svg" xmlns:xlink="http://www.w3.org/1999/xlink">
    <!-- Generator: Sketch 59.1 (86144) - https://sketch.com -->
    <title>smiling-emoticon-square-face</title>
    <desc>Created with Sketch.</desc>
    <g id="Facilitator" stroke="none" stroke-width="1" fill="none" fill-rule="evenodd">
        <g id="MODAL---Bedöm-kommentar" transform="translate(-487.000000, -543.000000)" fill="#FDFDFD" fill-rule="nonzero">
            <g id="smiling-emoticon-square-face" transform="translate(487.000000, 543.000000)">
                <path d="M21.3434347,3.6578776 C16.466875,-1.21909608 8.53280093,-1.21909608 3.65718408,3.65669901 C-1.21937564,8.53249411 -1.2189042,16.4667104 3.65765552,21.3434483 C8.53280093,26.2190077 16.466875,26.2190077 21.3429633,21.3425054 C26.2190515,16.4667104 26.2188158,8.53296554 21.3434347,3.6578776 Z M19.978856,19.9788857 C15.8551835,24.1025095 9.14519952,24.102981 5.02129135,19.9793571 C0.896676013,15.8550261 0.897147452,9.14441406 5.02129135,5.0207902 C9.1449638,0.897402064 15.8547121,0.896930631 19.9793274,5.02126163 C24.1029999,9.14488549 24.1025284,15.8554976 19.978856,19.9788857 Z M7.83530768,9.11542093 C7.83530768,8.30832775 8.48990003,7.65374313 9.29700272,7.65374313 C10.1038697,7.65374313 10.758462,8.30809203 10.758462,9.11542093 C10.758462,9.92298554 10.1038697,10.5773345 9.29700272,10.5773345 C8.48990003,10.5773345 7.83530768,9.92298554 7.83530768,9.11542093 Z M14.4630257,9.11542093 C14.4630257,8.30832775 15.1180895,7.65374313 15.9251921,7.65374313 C16.7320591,7.65374313 17.3866515,8.30809203 17.3866515,9.11542093 C17.3866515,9.92298554 16.7322948,10.5773345 15.9251921,10.5773345 C15.1180895,10.5773345 14.4630257,9.92298554 14.4630257,9.11542093 Z M17.9186698,15.101912 C17.0128007,17.1967242 14.8913275,18.5502082 12.5143347,18.5502082 C10.0861907,18.5502082 7.95222443,17.1898885 7.07770603,15.084469 C6.92778859,14.7240585 7.09868505,14.3101404 7.45957121,14.1602247 C7.54820164,14.1236887 7.64013215,14.1062457 7.73064834,14.1062457 C8.00785417,14.1062457 8.27091685,14.2700686 8.38382637,14.5423211 C9.03841871,16.1183214 10.6596957,17.1361451 12.5143347,17.1361451 C14.3270157,17.1361451 15.9388639,16.1176143 16.6205639,14.5406711 C16.7756672,14.1821464 17.1919474,14.0169091 17.5502406,14.1722463 C17.9085339,14.3275834 18.0737731,14.743623 17.9186698,15.101912 Z" id="Shape"></path>
            </g>
        </g>
    </g>
</svg>