<?xml version="1.0" encoding="UTF-8"?>
<svg width="17px" height="16px" viewBox="0 0 17 16" version="1.1" xmlns="http://www.w3.org/2000/svg" xmlns:xlink="http://www.w3.org/1999/xlink">
    <!-- Generator: Sketch 59.1 (86144) - https://sketch.com -->
    <title>like</title>
    <desc>Created with Sketch.</desc>
    <g id="Facilitator" stroke="none" stroke-width="1" fill="none" fill-rule="evenodd">
        <g id="Facilitator-View-Main" transform="translate(-248.000000, -658.000000)" fill="#7A7A7A" fill-rule="nonzero">
            <g id="like" transform="translate(248.000000, 658.000000)">
                <path d="M16.730839,4.9124966 C16.4862133,2.2200024 14.5804534,0.2665421 12.1954334,0.2665421 C10.6064944,0.2665421 9.15163221,1.121604 8.33299021,2.4920236 C7.52176111,1.1038775 6.12652441,0.2662198 4.56304711,0.2662198 C2.17834941,0.2662198 0.272267209,2.2196801 0.0279638091,4.9121743 C0.00862580908,5.031103 -0.0706599909,5.6570096 0.170420409,6.6777337 C0.517859809,8.1500001 1.32038681,9.4891566 2.49065811,10.5495236 L8.32912261,15.8478133 L14.2678224,10.5498459 C15.4380937,9.4891566 16.2406207,8.1503224 16.5880601,6.6777337 C16.8291405,5.6573319 16.7498547,5.0314253 16.730839,4.9124966 Z M15.960542,6.5301203 C15.6433988,7.8747559 14.9082325,9.0998182 13.836585,10.0705858 L8.33299021,14.9808263 L2.92382931,10.071875 C1.85024801,9.0991736 1.11540401,7.8744336 0.797938509,6.529798 C0.569750109,5.5638649 0.663539409,5.018211 0.663861709,5.0146657 L0.668696209,4.9821134 C0.878191209,2.6231997 2.51579751,0.9108198 4.56304711,0.9108198 C6.07366721,0.9108198 7.40347701,1.8390438 8.03454041,3.3329043 L8.33137871,4.0364852 L8.62821701,3.3329043 C9.24928911,1.8619271 10.6493603,0.9111421 12.1957557,0.9111421 C14.242683,0.9111421 15.8806116,2.623522 16.0942965,5.0130542 C16.0949411,5.018211 16.1887304,5.5641872 15.960542,6.5301203 Z" id="Shape"></path>
            </g>
        </g>
    </g>
</svg>