<?xml version="1.0" encoding="UTF-8"?>
<svg width="16px" height="15px" viewBox="0 0 16 15" version="1.1" xmlns="http://www.w3.org/2000/svg" xmlns:xlink="http://www.w3.org/1999/xlink">
    <!-- Generator: Sketch 59.1 (86144) - https://sketch.com -->
    <title>link</title>
    <desc>Created with Sketch.</desc>
    <g id="Facilitator" stroke="none" stroke-width="1" fill="none" fill-rule="evenodd">
        <g id="Facilitator-View-Main" transform="translate(-756.000000, -1081.000000)" fill="#7A7A7A" fill-rule="nonzero">
            <g id="link" transform="translate(756.000000, 1081.000000)">
                <path d="M12.123843,0 C11.0886972,0 10.115322,0.362228272 9.38321698,1.01962223 L6.36484287,3.72997221 C6.59552461,3.70105376 6.82598641,3.66965256 7.06178953,3.66965256 C7.71195259,3.66965256 8.34904516,3.78306931 8.93473548,3.99336992 L10.8148451,2.30512491 C11.1648265,1.99128215 11.6295205,1.81816643 12.123843,1.81816643 C13.1446615,1.81816643 13.9751409,2.56389567 13.9751409,3.48054 C13.9751409,3.92444526 13.7823511,4.34168912 13.4328409,4.65595508 L10.0486499,7.69484687 C9.34865556,8.3225042 8.13061702,8.32295561 7.43062267,7.69529828 L6,8.98170379 C6.73163375,9.63822314 7.70497747,10 8.73962058,10 C9.7747664,10 10.7481101,9.63777173 11.4802466,8.98037777 L14.8645004,5.94148599 C15.5966054,5.28409203 16,4.41004951 16,3.48054 C16,1.5611731 14.2613723,0 12.123843,0 Z" id="Path"></path>
                <path d="M7.04745896,11.0092086 L5.18510722,12.6871431 C4.83512686,13.0020424 4.37043437,13.175741 3.87611342,13.175741 C2.85529809,13.175741 2.0248213,12.4275012 2.0248213,11.5077709 C2.0248213,11.0623996 2.21761056,10.6437227 2.56711963,10.3283988 L5.95136282,7.27927644 C6.65135496,6.64950608 7.86938968,6.64905315 8.56938182,7.27882351 L10,5.98808727 C8.53626581,4.67062818 5.98400754,4.67020356 4.51977064,5.98941775 L1.13549603,9.03854008 C0.403361873,9.69814718 0,10.5751039 0,11.5077426 C0,13.4335995 1.73859084,15 3.876082,15 C4.91122457,15 5.88456523,14.6365523 6.6166994,13.9769452 L9.59500432,11.2935635 C9.37755086,11.3198901 9.1612285,11.351397 8.93808813,11.351397 C8.27790433,11.3514253 7.63848873,11.2325029 7.04745896,11.0092086 Z" id="Path"></path>
            </g>
        </g>
    </g>
</svg>