<?xml version="1.0" encoding="UTF-8"?>
<svg width="11px" height="18px" viewBox="0 0 11 18" version="1.1" xmlns="http://www.w3.org/2000/svg" xmlns:xlink="http://www.w3.org/1999/xlink">
    <!-- Generator: Sketch 60.1 (88133) - https://sketch.com -->
    <title>Fill 1</title>
    <desc>Created with Sketch.</desc>
    <g id="Facilitator" stroke="none" stroke-width="1" fill="none" fill-rule="evenodd">
        <g id="Facilitator-View-Main" transform="translate(-581.000000, -317.000000)" fill="#647088">
            <g id="Group-5" transform="translate(542.000000, 267.000000)">
                <g id="Group-4">
                    <g id="Group-2">
                        <path d="M49.7413383,55.4936782 L45.1431316,50.2998448 C44.9666646,50.1001966 44.7335001,50.0003725 44.5003355,50 L44.5,50 L44.4996645,50 C44.2668354,50.0003725 44.0336709,50.1001966 43.8568684,50.2998448 L39.2586617,55.4936782 C39.0929303,55.6810347 39,55.9332023 39,56.1961718 L39,66.9980341 C39,67.5515365 39.4039283,68 39.9021288,68 L44.4996645,68 L44.5003355,68 L49.0978712,68 C49.5960717,68 50,67.5515365 50,66.9980341 L50,56.1961718 C50,55.9332023 49.9074051,55.6810347 49.7413383,55.4936782" id="Fill-1"></path>
                    </g>
                </g>
            </g>
        </g>
    </g>
</svg>