<?xml version="1.0" encoding="UTF-8"?>
<svg width="11px" height="14px" viewBox="0 0 11 14" version="1.1" xmlns="http://www.w3.org/2000/svg" xmlns:xlink="http://www.w3.org/1999/xlink">
    <!-- Generator: Sketch 59.1 (86144) - https://sketch.com -->
    <title>Group 5</title>
    <desc>Created with Sketch.</desc>
    <g id="Symbols" stroke="none" stroke-width="1" fill="none" fill-rule="evenodd">
        <g id="Pausa" transform="translate(-109.000000, -15.000000)" fill="#7A7A7A">
            <g id="Group-10">
                <g id="Group-5" transform="translate(109.000000, 15.000000)">
                    <path d="M0.720063864,14 C0.322565194,14 0,13.728409 0,13.393726 L0,0.606273985 C0,0.271098123 0.322565194,0 0.720063864,0 L2.57993614,0 C2.97802022,0 3.3,0.271098123 3.3,0.606273985 L3.3,13.393726 C3.3,13.728409 2.97802022,14 2.57993614,14 L0.720063864,14 Z" id="Fill-1"></path>
                    <path d="M10.2800639,14 L8.41993615,14 C8.02250798,14 7.7,13.728409 7.7,13.393726 L7.7,0.606273985 C7.7,0.271098123 8.02250798,0 8.41993615,0 L10.2800639,0 C10.677492,0 11,0.271098123 11,0.606273985 L11,13.393726 C11,13.728409 10.677492,14 10.2800639,14" id="Fill-3"></path>
                </g>
            </g>
        </g>
    </g>
</svg>