<?xml version="1.0" encoding="UTF-8"?>
<svg width="25px" height="25px" viewBox="0 0 25 25" version="1.1" xmlns="http://www.w3.org/2000/svg" xmlns:xlink="http://www.w3.org/1999/xlink">
    <!-- Generator: Sketch 59.1 (86144) - https://sketch.com -->
    <title>sad-face-in-rounded-square</title>
    <desc>Created with Sketch.</desc>
    <g id="Facilitator" stroke="none" stroke-width="1" fill="none" fill-rule="evenodd">
        <g id="MODAL---Bedöm-kommentar" transform="translate(-525.000000, -543.000000)" fill="#7A7A7A" fill-rule="nonzero">
            <g id="sad-face-in-rounded-square" transform="translate(525.000000, 543.000000)">
                <path d="M21.1556075,3.62570093 C16.3219626,-1.20841121 8.45771028,-1.20841121 3.625,3.62453271 C-1.20864486,8.45747664 -1.20817757,16.3219626 3.62546729,21.1558411 C8.45771028,25.9885514 16.3219626,25.9885514 21.1551402,21.1549065 C25.9883178,16.3219626 25.9880841,8.45794393 21.1556075,3.62570093 Z M19.8030374,19.803271 C15.7156542,23.8906542 9.06471963,23.8911215 4.9771028,19.8037383 C0.888785048,15.7156542 0.889252337,9.06401869 4.9771028,4.97663551 C9.06448598,0.889485981 15.7151869,0.889018692 19.8035047,4.9771028 C23.8908879,9.06448598 23.8904206,15.7161215 19.8030374,19.803271 Z M17.9946262,17.2899533 C18.1483645,17.6453271 17.9848131,18.0577103 17.6296729,18.211215 C17.2742991,18.3654206 16.8619159,18.2014019 16.7081776,17.8462617 C16.032243,16.2834112 14.4348131,15.2733645 12.6378505,15.2733645 C10.7995327,15.2733645 9.19228972,16.2824766 8.54392523,17.8443925 C8.43200935,18.1140187 8.17102804,18.2768692 7.89649533,18.2768692 C7.8067757,18.2768692 7.71588785,18.2595794 7.62780374,18.2231308 C7.2703271,18.0745327 7.10093458,17.6642523 7.24929907,17.3070093 C8.1161215,15.2200935 10.2315421,13.871729 12.6378505,13.871729 C14.9939252,13.871729 17.096729,15.2133178 17.9946262,17.2899533 Z M7.76635514,9.03528037 C7.76635514,8.23528037 8.41518692,7.5864486 9.21518692,7.5864486 C10.0149533,7.5864486 10.663785,8.23504673 10.663785,9.03528037 C10.663785,9.83574766 10.0149533,10.4843458 9.21518692,10.4843458 C8.41518692,10.4843458 7.76635514,9.83574766 7.76635514,9.03528037 Z M14.3357477,9.03528037 C14.3357477,8.23528037 14.9850467,7.5864486 15.7850467,7.5864486 C16.5848131,7.5864486 17.2336449,8.23504673 17.2336449,9.03528037 C17.2336449,9.83574766 16.5850467,10.4843458 15.7850467,10.4843458 C14.9850467,10.4843458 14.3357477,9.83574766 14.3357477,9.03528037 Z" id="Shape"></path>
            </g>
        </g>
    </g>
</svg>