<?xml version="1.0" encoding="UTF-8"?>
<svg width="17px" height="16px" viewBox="0 0 17 16" version="1.1" xmlns="http://www.w3.org/2000/svg" xmlns:xlink="http://www.w3.org/1999/xlink">
    <!-- Generator: Sketch 59.1 (86144) - https://sketch.com -->
    <title>Shape</title>
    <desc>Created with Sketch.</desc>
    <g id="Facilitator" stroke="none" stroke-width="1" fill="none" fill-rule="evenodd">
        <g id="Facilitator-View-Main" transform="translate(-358.000000, -658.000000)" fill="#7A7A7A" fill-rule="nonzero">
            <path d="M372.776108,662.384199 L372.776108,658.297518 C372.776108,658.178525 372.706075,658.071026 372.598043,658.024101 C372.490043,657.977177 372.364817,657.999988 372.279656,658.081933 C370.513525,659.78258 368.198459,660.719112 365.760877,660.719112 L362.205229,660.719112 C362.042874,660.719112 361.911326,660.85231 361.911326,661.016627 C361.911326,661.180945 362.042874,661.314143 362.205229,661.314143 L365.760909,661.314143 C367.483588,661.314143 369.148524,660.873209 370.622622,660.046331 L370.622622,661.352414 C370.622622,661.516731 370.754171,661.649929 370.916526,661.649929 C371.078881,661.649929 371.210429,661.516731 371.210429,661.352414 L371.210429,659.689351 C371.548752,659.467595 371.875526,659.224874 372.188333,658.960862 L372.188333,662.589138 C372.188301,662.592241 372.188301,662.595343 372.188333,662.598412 L372.188333,667.383018 C372.188301,667.38612 372.188301,667.389223 372.188333,667.392292 L372.188333,670.463058 C371.875559,670.199014 371.548784,669.95626 371.210429,669.734568 L371.210429,662.435858 C371.210429,662.27154 371.078881,662.138343 370.916526,662.138343 C370.754171,662.138343 370.622622,662.27154 370.622622,662.435858 L370.622622,669.377524 C369.148524,668.550646 367.483588,668.109712 365.760909,668.109712 L361.875196,668.109712 C360.784099,668.109712 359.896453,667.211157 359.896453,666.106651 L359.896453,663.317204 C359.896453,662.51031 360.37084,661.785804 361.105067,661.471472 C361.254519,661.407437 361.324519,661.232865 361.261228,661.081544 C361.198035,660.930223 361.025551,660.859396 360.876067,660.923431 C359.929485,661.328739 359.31613,662.259785 359.309001,663.298819 L358.891323,663.298819 C358.399839,663.298917 358,663.703637 358,664.201162 L358,665.501922 C358,665.999446 358.399871,666.404199 358.891323,666.404199 L359.325969,666.404199 C359.472324,667.697089 360.559421,668.704775 361.875196,668.704775 L365.056005,668.704775 L366.289909,672.973113 C366.319684,673.076008 366.300329,673.184225 366.236813,673.270041 C366.173329,673.355857 366.076103,673.405067 365.970199,673.405067 L364.246166,673.405067 C364.09923,673.405067 363.967779,673.30534 363.926488,673.162575 L362.820842,669.337946 C362.775229,669.180258 362.6121,669.089837 362.456229,669.135946 C362.300423,669.182119 362.211132,669.347351 362.256681,669.50504 L363.362327,673.329603 C363.476423,673.724331 363.83994,674 364.246166,674 L365.970199,674 C366.263038,674 366.531619,673.863929 366.7072,673.626759 C366.882781,673.389589 366.936329,673.090408 366.854071,672.805955 L366.410006,671.269821 L366.935329,671.269821 C367.228039,671.269821 367.49662,671.133847 367.672233,670.896775 C367.847814,670.659638 367.901459,670.360458 367.81933,670.075808 L367.468136,668.861027 C369.265202,669.192405 370.9323,670.044525 372.27972,671.341955 C372.33543,671.395639 372.408333,671.423917 372.482366,671.423917 C372.52143,671.423917 372.560817,671.416015 372.598108,671.399851 C372.70614,671.352959 372.776172,671.245428 372.776172,671.126435 L372.776172,667.597297 C373.825431,667.173017 374.516141,666.151812 374.516141,664.990748 C374.516141,663.829618 373.825399,662.808446 372.776108,662.384199 Z M359.032259,665.741929 L358.733474,665.741929 C358.613646,665.741965 358.516129,665.593388 358.516129,665.410773 L358.516129,664.008638 C358.516129,663.826024 358.613623,663.677412 358.733474,663.677412 L359.032259,663.677412 L359.032259,665.741929 Z M367.225628,670.761791 C367.164203,670.851653 367.070131,670.903223 366.967694,670.903223 L366.292987,670.903223 L365.741941,668.838706 L365.831426,668.838706 C366.178658,668.838706 366.523174,668.860573 366.863977,668.902527 L367.277128,670.450522 C367.305905,670.558384 367.287147,670.671859 367.225628,670.761791 Z M372.967753,667.290318 L372.967753,663.161282 C373.597183,663.562445 374.000012,664.3458 374.000012,665.225765 C374.000012,666.105731 373.597183,666.889155 372.967753,667.290318 Z" id="Shape"></path>
        </g>
    </g>
</svg>