<?xml version="1.0" encoding="UTF-8"?>
<svg width="29px" height="26px" viewBox="0 0 29 26" version="1.1" xmlns="http://www.w3.org/2000/svg" xmlns:xlink="http://www.w3.org/1999/xlink">
    <!-- Generator: Sketch 59.1 (86144) - https://sketch.com -->
    <title>comment</title>
    <desc>Created with Sketch.</desc>
    <g id="Användare" stroke="none" stroke-width="1" fill="none" fill-rule="evenodd">
        <g id="Desktop-HD" transform="translate(-761.000000, -408.000000)" fill="#647088" fill-rule="nonzero">
            <g id="comment" transform="translate(761.000000, 408.000000)">
                <path d="M25.013031,0 L3.98696898,0 C1.78860473,0 0,1.7426361 0,3.8852696 L0,16.4245568 C0,18.5623607 1.78081664,20.302237 3.97280883,20.3098265 L3.97280883,26 L12.3642945,20.3098265 L25.013031,20.3098265 C27.2113953,20.3098265 29,18.5668453 29,16.4245568 L29,3.8852696 C29,1.7426361 27.2113953,0 25.013031,0 Z M27.4324324,16.4128268 C27.4324324,17.6476608 26.3956204,18.6525446 25.1211536,18.6525446 L11.8037166,18.6525446 L5.58123523,22.8484848 L5.58123523,18.6525446 L3.87884644,18.6525446 C2.60437958,18.6525446 1.56756757,17.6476608 1.56756757,16.4128268 L1.56756757,3.81547539 C1.56756757,2.58029484 2.60437958,1.57575758 3.87884644,1.57575758 L25.1211536,1.57575758 C26.3956204,1.57575758 27.4324324,2.58029484 27.4324324,3.81547539 L27.4324324,16.4128268 Z" id="Shape"></path>
                <polygon id="Path" points="7 7 22 7 22 8 7 8"></polygon>
                <polygon id="Path" points="7 10 22 10 22 11 7 11"></polygon>
                <polygon id="Path" points="7 13 22 13 22 14 7 14"></polygon>
            </g>
        </g>
    </g>
</svg>