<?xml version="1.0" encoding="UTF-8"?>
<svg width="384px" height="90px" viewBox="0 0 384 90" version="1.1" xmlns="http://www.w3.org/2000/svg" xmlns:xlink="http://www.w3.org/1999/xlink">
    <!-- Generator: Sketch 61 (89581) - https://sketch.com -->
    <title>Group</title>
    <desc>Created with Sketch.</desc>
    <g id="Page-1" stroke="none" stroke-width="1" fill="none" fill-rule="evenodd">
        <g id="Group" fill="#FDFDFD">
            <rect id="Rectangle" transform="translate(7.500000, 78.000000) rotate(-90.000000) translate(-7.500000, -78.000000) " x="-4" y="71" width="23" height="14" rx="5"></rect>
            <rect id="Rectangle" transform="translate(31.500000, 75.500000) rotate(-90.000000) translate(-31.500000, -75.500000) " x="18" y="69" width="27" height="13" rx="5"></rect>
            <rect id="Rectangle" transform="translate(56.000000, 73.000000) rotate(-90.000000) translate(-56.000000, -73.000000) " x="40" y="66" width="32" height="14" rx="5"></rect>
            <rect id="Rectangle" transform="translate(80.000000, 71.000000) rotate(-90.000000) translate(-80.000000, -71.000000) " x="62" y="64" width="36" height="14" rx="5"></rect>
            <rect id="Rectangle" transform="translate(105.000000, 69.500000) rotate(-90.000000) translate(-105.000000, -69.500000) " x="85" y="63" width="40" height="13" rx="5"></rect>
            <rect id="Rectangle" transform="translate(129.000000, 67.000000) rotate(-90.000000) translate(-129.000000, -67.000000) " x="107" y="60" width="44" height="14" rx="5"></rect>
            <rect id="Rectangle" transform="translate(153.500000, 65.000000) rotate(-90.000000) translate(-153.500000, -65.000000) " x="129" y="58" width="49" height="14" rx="5"></rect>
            <rect id="Rectangle" transform="translate(178.500000, 63.000000) rotate(-90.000000) translate(-178.500000, -63.000000) " x="152" y="56" width="53" height="14" rx="5"></rect>
            <rect id="Rectangle" transform="translate(203.000000, 60.000000) rotate(-90.000000) translate(-203.000000, -60.000000) " x="174" y="53" width="58" height="14" rx="5"></rect>
            <rect id="Rectangle" transform="translate(228.000000, 58.000000) rotate(-90.000000) translate(-228.000000, -58.000000) " x="197" y="51" width="62" height="14" rx="5"></rect>
            <rect id="Rectangle" transform="translate(253.500000, 56.000000) rotate(-90.000000) translate(-253.500000, -56.000000) " x="220" y="49" width="67" height="14" rx="5"></rect>
            <rect id="Rectangle" transform="translate(277.500000, 53.500000) rotate(-90.000000) translate(-277.500000, -53.500000) " x="242" y="47" width="71" height="13" rx="5"></rect>
            <rect id="Rectangle" transform="translate(302.000000, 51.000000) rotate(-90.000000) translate(-302.000000, -51.000000) " x="264" y="44" width="76" height="14" rx="5"></rect>
            <rect id="Rectangle" transform="translate(326.000000, 49.000000) rotate(-90.000000) translate(-326.000000, -49.000000) " x="286" y="42" width="80" height="14" rx="5"></rect>
            <rect id="Rectangle" transform="translate(351.500000, 47.000000) rotate(-90.000000) translate(-351.500000, -47.000000) " x="309" y="40" width="85" height="14" rx="5"></rect>
            <rect id="Rectangle" transform="translate(376.500000, 45.000000) rotate(-90.000000) translate(-376.500000, -45.000000) " x="332" y="38" width="89" height="14" rx="5"></rect>
        </g>
    </g>
</svg>